<?xml version="1.0" encoding="utf-8"?>
<!-- Generator: Adobe Illustrator 26.0.0, SVG Export Plug-In . SVG Version: 6.00 Build 0)  -->
<svg version="1.1" id="Layer_1" xmlns="http://www.w3.org/2000/svg" xmlns:xlink="http://www.w3.org/1999/xlink" x="0px" y="0px"
	 viewBox="0 0 1920 1080" style="enable-background:new 0 0 1920 1080;" xml:space="preserve">
<path d="M387.15,254.99c-31.23,0.18-56.41,25.66-56.22,56.89c0.05,8.87,2.14,17.26,5.84,24.71c0.05,0.11,0.1,0.22,0.16,0.34
	l4.48,7.41l46.73,77.49l45.81-78.03l4.38-7.47c0.06-0.12,0.12-0.23,0.16-0.34c3.61-7.5,5.6-15.91,5.55-24.78
	C443.86,279.98,418.38,254.81,387.15,254.99z M412.93,307.52l-2.01,1.83l-23.25,21.1l-23.26-21.1l-2.01-1.83
	c-3.38-3.06-5.1-7.31-5.1-11.58c0-3.75,1.33-7.51,4.03-10.49c5.79-6.37,15.72-6.85,22.07-1.06l4.27,3.87l4.26-3.87
	c6.37-5.79,16.3-5.31,22.08,1.06c2.7,2.98,4.03,6.74,4.03,10.49C418.04,300.21,416.32,304.46,412.93,307.52z"/>
</svg>
